<svg id="Layer_1" data-name="Layer 1" xmlns="http://www.w3.org/2000/svg" viewBox="0 0 378.42 239.12"><defs><style>.cls-1{fill:#ff9e18;}.cls-2{fill:#eb80a8;}.cls-3{fill:#fcdf51;}</style></defs><path class="cls-1" d="M174.32,427.18c5.4,47.61,4.13,87.92-16.19,93.31-10.15,2.54-7,22.85,8.57,19.68,32.69-7,39.36-51.73,27.3-118.07C191.46,408.45,172.42,410.67,174.32,427.18Z" transform="translate(-108.43 -301.39)"/><path class="cls-2" d="M277.94,316.84c.74-3.2,6.89-2.71,6.89.24,0,9.1,1.23,14,6.64,14,7.37,0,10.33-3.93,10.33-13.28,0-2.95,6.88-2.95,6.88.74,0,8.11,2.95,12.54,9.59,12.54,6.88,0,8.61-5.41,7.13-13.52-1-3.94,6.39-4.68,6.89-.74,2.46,19.92-5.17,21.64-14,21.64-5.41,0-10.08-1-12.54-3.94-2.71,3.2-9.59,4.43-14.51,3.94C281.14,338,275,328.4,277.94,316.84Z" transform="translate(-108.43 -301.39)"/><path class="cls-1" d="M420.35,394.62c-.64-13.65-22.22-11.43-22.22.95,0,23.17,5.4,47.92-27.29,47.92h-16.5c.31-7.93.31-16.18.31-24.75,0-40.63-22.21-57.77-44.75-57.13-33,0-52,32.69-49.51,63.79,2.54,30.47,35.86,37.77,71.09,39.68-4.12,21.26-19,23.48-37.45,28.88-12.69,4.12-7.93,21.26,7.62,19.36,34.91-3.81,47-21.58,50.78-47.61h18.41C427,465.71,421.62,430.48,420.35,394.62Zm-88.23,48.24c-24.76-1.27-49.83-5.4-51.74-18.41-4.12-17.46,10.16-39.67,30.47-40.94,11.43-.64,21.9,7.61,21.9,34.59Z" transform="translate(-108.43 -301.39)"/><path class="cls-3" d="M394.44,341.87,396,331.39a3.07,3.07,0,0,0-.94-2.68l-7.76-7.2a3.06,3.06,0,0,1,1.57-5.25l10.44-1.78a3,3,0,0,0,2.25-1.72l4.46-9.61a3.06,3.06,0,0,1,5.48-.13l4.91,9.38a3.06,3.06,0,0,0,2.34,1.62l10.51,1.27a3,3,0,0,1,1.82,5.16L423.65,328a3.08,3.08,0,0,0-.81,2.73l2,10.39a3,3,0,0,1-4.35,3.32l-9.49-4.7a3.07,3.07,0,0,0-2.84.07L399,345A3.06,3.06,0,0,1,394.44,341.87Z" transform="translate(-108.43 -301.39)"/><path class="cls-3" d="M486,381.67c-8.72-26.23-79.56-17.56-146.26-.73a76.36,76.36,0,0,1,2.1,12.57c27.73-7.1,53.66-12,75.82-14.32a235.77,235.77,0,0,1,23.94-1.36c22.85,0,31.17,4.71,32.23,7.89.95,2.86-1.9,8.11-7.62,14-7.08,7.36-18.65,15.94-33.46,24.81-31.5,18.86-75.43,38.08-123.69,54.13s-94.95,26.94-131.47,30.7c-41.31,4.24-54.81-2.42-56.18-6.53-1-2.86,1.9-8.11,7.63-14.06,7.08-7.36,18.65-15.93,33.46-24.8,27.72-16.6,65.07-33.47,106.52-48.21a8.84,8.84,0,0,1-.79-3.61v-9.71c-43.63,15.31-83.12,33-112.32,50.53-35.74,21.4-51.44,39.54-46.66,53.9,3.69,11.11,18.52,16.69,44.19,16.69a250.8,250.8,0,0,0,25.46-1.45c37.42-3.84,85.08-14.95,134.21-31.28C388.85,465.7,497.38,415.85,486,381.67Z" transform="translate(-108.43 -301.39)"/><path class="cls-1" d="M318.49,454.83c12.78-7.14,25.28-14.61,36.13-24.21,0-3.9,0-7.85,0-11.88,0-40.63-22.21-57.77-44.75-57.13-33,0-52,32.69-49.51,63.79,2.09,25.16,25.18,34.51,53,38.09A9.25,9.25,0,0,1,318.49,454.83Zm-38.11-30.38c-4.12-17.46,10.16-39.67,30.47-40.94,11.43-.64,21.9,7.61,21.9,34.59l-.63,24.76C307.36,441.59,282.29,437.46,280.38,424.45Z" transform="translate(-108.43 -301.39)"/><path class="cls-1" d="M222.62,323.87c-7.93,1.27-7.61,8.57-7.61,17.77.31,63.48.31,73.64.31,117.12,0,14.92,7.3,15.55,11.43,14.92,4.44-.64,11.74-1.91,11.43-18.09-.64-39.68-.32-59.67-2.86-117.12C234.68,323.87,228.34,322.29,222.62,323.87Z" transform="translate(-108.43 -301.39)"/><path class="cls-1" d="M175.63,491.28a112.64,112.64,0,0,1,19.54,5.78,13.82,13.82,0,0,1,2.83,1.48c3.13-19.83,1.56-45.83-4-76.44-2.54-13.65-21.58-11.43-19.68,5.08C177.11,451.76,178.11,474.39,175.63,491.28Z" transform="translate(-108.43 -301.39)"/></svg>